<svg width="256" height="171" viewBox="0 0 256 171" fill="none" xmlns="http://www.w3.org/2000/svg">
  <rect width="256" height="171" rx="28" fill="white"/>
  <path d="M104.414 60.573C114.44 46.988 130.573 39 148.084 39C176.802 39 200.726 60.499 205.078 88.039C221.944 91.453 234 106.31 234 123.521C234 143.346 217.925 159.422 198.099 159.422H80.38C58.632 159.422 41 141.79 41 120.042C41 98.528 58.255 81.045 79.679 80.676C85.097 69.018 94.138 62.176 104.414 60.573Z" fill="url(#paint0_linear_844_2)"/>
  <path d="M115.701 73.768C121.722 62.513 133.598 54.866 147.263 54.866C165.241 54.866 180.4 68.104 184.046 85.072C198.951 85.646 210.855 97.904 210.855 112.948C210.855 128.356 198.364 140.847 182.956 140.847H90.386C74.267 140.847 61.201 127.781 61.201 111.662C61.201 95.947 73.62 83.091 89.179 82.393C95.047 77.134 102.849 73.945 111.397 73.945C112.851 73.945 114.289 73.886 115.701 73.768Z" fill="url(#paint1_linear_844_2)"/>
  <defs>
    <linearGradient id="paint0_linear_844_2" x1="54.5" y1="51" x2="220.5" y2="151" gradientUnits="userSpaceOnUse">
      <stop stop-color="#0A5BD3"/>
      <stop offset="1" stop-color="#37A0FF"/>
    </linearGradient>
    <linearGradient id="paint1_linear_844_2" x1="71" y1="67" x2="194" y2="136" gradientUnits="userSpaceOnUse">
      <stop stop-color="#50B7FF"/>
      <stop offset="1" stop-color="#0078D4"/>
    </linearGradient>
  </defs>
</svg>
